<?xml version="1.0" encoding="UTF-8"?>
<svg xmlns="http://www.w3.org/2000/svg" xmlns:xlink="http://www.w3.org/1999/xlink" width="100px" height="100px" viewBox="0 0 100 100" version="1.1">
<defs>
<linearGradient id="linear0" gradientUnits="userSpaceOnUse" x1="422.040619" y1="313.095276" x2="243.697189" y2="345.857208" gradientTransform="matrix(0.195312,0,0,0.195312,0,0)">
<stop offset="0" style="stop-color:rgb(77.647059%,0%,99.215686%);stop-opacity:1;"/>
<stop offset="1" style="stop-color:rgb(32.156863%,29.019608%,100%);stop-opacity:1;"/>
</linearGradient>
<linearGradient id="linear1" gradientUnits="userSpaceOnUse" x1="235.073273" y1="381.793823" x2="231.858292" y2="449.962524" gradientTransform="matrix(0.195312,0,0,0.195312,0,0)">
<stop offset="0" style="stop-color:rgb(36.470588%,37.647059%,100%);stop-opacity:1;"/>
<stop offset="1" style="stop-color:rgb(18.431373%,69.411765%,100%);stop-opacity:1;"/>
</linearGradient>
</defs>
<g id="surface1">
<path style=" stroke:none;fill-rule:nonzero;fill:url(#linear0);" d="M 75.585938 39.226562 L 75.652344 39.28125 C 75.164062 39.664062 75.765625 39.414062 76.066406 39.578125 C 76.402344 39.765625 76.386719 40.117188 76.886719 40.304688 C 77.378906 40.484375 78.679688 41.574219 78.921875 42.164062 C 79.050781 42.476562 78.746094 42.734375 78.804688 43.070312 C 70.535156 54.75 66.894531 67.476562 65.414062 81.621094 C 65.304688 82.675781 65.230469 86.035156 64.90625 86.710938 C 64.371094 87.828125 63 88.074219 62.046875 87.335938 C 61.074219 86.585938 61.289062 85.429688 61.328125 84.355469 C 61.789062 72.425781 65.160156 57.0625 71.835938 46.796875 C 65.242188 51.882812 59.546875 60.691406 56.070312 68.082031 C 55.824219 68.605469 55.519531 69.4375 55.207031 69.890625 C 54.339844 71.984375 53.386719 74.070312 52.746094 76.25 C 52.617188 75.742188 53.109375 75.359375 53.03125 74.921875 L 52.960938 74.914062 C 51.839844 75.699219 48.992188 75.328125 48.761719 75.644531 L 48.660156 75.636719 C 48.882812 74.886719 49.1875 74.082031 49.53125 73.375 C 49.582031 72.855469 49.925781 72.277344 50.117188 71.789062 C 55.257812 58.691406 63.324219 46.539062 75.585938 39.226562 Z M 75.585938 39.226562 "/>
<path style=" stroke:none;fill-rule:nonzero;fill:rgb(33.725491%,39.607844%,100%);fill-opacity:1;" d="M 49.53125 73.375 C 49.578125 73.871094 49.105469 74.558594 49.003906 75.066406 C 49.089844 75.003906 52.300781 75.273438 53.128906 74.511719 C 53.902344 73.800781 54.375 70.53125 55.207031 69.890625 C 54.339844 71.984375 53.386719 74.070312 52.746094 76.25 C 52.617188 75.742188 53.109375 75.359375 53.03125 74.921875 L 52.960938 74.914062 C 51.839844 75.699219 48.992188 75.328125 48.761719 75.644531 L 48.660156 75.636719 C 48.882812 74.886719 49.1875 74.082031 49.53125 73.375 Z M 49.53125 73.375 "/>
<path style=" stroke:none;fill-rule:nonzero;fill:rgb(44.705883%,18.039216%,99.607843%);fill-opacity:1;" d="M 34.050781 69.429688 C 33.789062 69.070312 33.28125 67.699219 33.050781 67.1875 C 29.074219 58.457031 23.714844 50.308594 17.375 43.105469 C 16.523438 42.136719 14.65625 40.648438 14.351562 39.386719 C 13.984375 37.84375 15.644531 36.449219 17.019531 37.304688 C 17.859375 37.824219 18.917969 39.128906 19.605469 39.867188 C 25.542969 46.246094 30.34375 53.417969 34.464844 61.0625 C 35.335938 62.675781 37.851562 67.464844 38.261719 69.179688 C 38.792969 70.0625 39.269531 71.570312 39.640625 72.570312 C 40.78125 75.613281 41.738281 78.585938 42.824219 81.621094 C 42.792969 80.585938 42.820312 79.550781 42.824219 78.519531 L 42.894531 78.53125 C 43.042969 78.246094 42.820312 77.839844 43.023438 77.53125 C 43.421875 76.929688 46.179688 77.757812 46.964844 76.25 C 46.996094 77.804688 46.957031 79.367188 46.964844 80.921875 C 47.59375 79.179688 47.929688 77.351562 48.660156 75.636719 L 48.761719 75.644531 C 48.992188 75.328125 51.839844 75.699219 52.960938 74.914062 L 53.03125 74.921875 C 53.109375 75.359375 52.617188 75.742188 52.746094 76.25 C 51.820312 78.328125 51.027344 81.445312 50.414062 83.652344 C 49.328125 87.570312 49.730469 87.851562 45.15625 87.863281 C 40.5 87.878906 40.644531 88.269531 39.136719 83.4375 C 38.199219 80.433594 37.226562 77.363281 36.085938 74.433594 C 35.429688 72.757812 34.679688 71.109375 34.050781 69.429688 Z M 34.050781 69.429688 "/>
<path style=" stroke:none;fill-rule:nonzero;fill:url(#linear1);" d="M 38.261719 69.179688 C 38.792969 70.0625 39.269531 71.570312 39.640625 72.570312 C 40.78125 75.613281 41.738281 78.585938 42.824219 81.621094 C 42.792969 80.585938 42.820312 79.550781 42.824219 78.519531 L 42.894531 78.53125 C 43.042969 78.246094 42.820312 77.839844 43.023438 77.53125 C 43.421875 76.929688 46.179688 77.757812 46.964844 76.25 C 46.996094 77.804688 46.957031 79.367188 46.964844 80.921875 C 47.59375 79.179688 47.929688 77.351562 48.660156 75.636719 L 48.761719 75.644531 C 48.992188 75.328125 51.839844 75.699219 52.960938 74.914062 L 53.03125 74.921875 C 53.109375 75.359375 52.617188 75.742188 52.746094 76.25 C 51.820312 78.328125 51.027344 81.445312 50.414062 83.652344 C 49.328125 87.570312 49.730469 87.851562 45.15625 87.863281 C 40.5 87.878906 40.644531 88.269531 39.136719 83.4375 C 38.199219 80.433594 37.226562 77.363281 36.085938 74.433594 C 35.429688 72.757812 34.679688 71.109375 34.050781 69.429688 C 34.761719 70.03125 37.945312 79.488281 38.460938 81.019531 C 38.777344 80.90625 39.132812 80.722656 39.457031 80.660156 C 40.113281 80.53125 41.703125 81.0625 42.1875 80.472656 C 42.464844 80.132812 39.429688 72.296875 39.074219 71.371094 C 38.804688 70.679688 38.328125 69.921875 38.261719 69.179688 Z M 38.261719 69.179688 "/>
<path style=" stroke:none;fill-rule:nonzero;fill:rgb(44.705883%,18.039216%,99.607843%);fill-opacity:1;" d="M 56.90625 27.289062 C 57.285156 27.175781 61.320312 21.375 62.679688 20.433594 C 63.265625 20.027344 63.550781 21.585938 63.660156 21.898438 C 64.699219 24.847656 64.007812 24.335938 62.15625 26.679688 C 61.441406 27.585938 56.671875 34.019531 56.90625 34.964844 C 55.933594 36.121094 55.269531 37.707031 54.644531 39.070312 C 50.8125 47.382812 48.6875 56.496094 47.640625 65.566406 C 47.542969 66.429688 47.535156 67.363281 47.367188 68.210938 C 47.300781 70.839844 47.050781 73.570312 46.964844 76.25 C 46.179688 77.757812 43.421875 76.929688 43.023438 77.53125 C 42.820312 77.839844 43.042969 78.246094 42.894531 78.53125 L 42.824219 78.519531 C 42.789062 76.035156 42.796875 72.070312 43.167969 69.601562 C 43.140625 69.078125 43.238281 68.492188 43.285156 67.964844 C 44.378906 55.578125 47.511719 43.035156 53.746094 32.214844 C 54.574219 30.78125 55.855469 28.519531 56.90625 27.289062 Z M 56.90625 27.289062 "/>
<path style=" stroke:none;fill-rule:nonzero;fill:rgb(33.725491%,39.607844%,100%);fill-opacity:1;" d="M 47.367188 68.210938 C 47.300781 70.839844 47.050781 73.570312 46.964844 76.25 C 46.179688 77.757812 43.421875 76.929688 43.023438 77.53125 C 42.820312 77.839844 43.042969 78.246094 42.894531 78.53125 L 42.824219 78.519531 C 42.789062 76.035156 42.796875 72.070312 43.167969 69.601562 C 43.511719 70.480469 42.601562 75.546875 42.972656 76.949219 C 43.15625 76.964844 45.722656 76.621094 45.914062 76.558594 C 47.238281 76.136719 46.878906 75.671875 46.921875 74.476562 C 46.953125 73.59375 47.039062 68.589844 47.367188 68.210938 Z M 47.367188 68.210938 "/>
<path style=" stroke:none;fill-rule:nonzero;fill:rgb(73.725492%,2.745098%,100%);fill-opacity:1;" d="M 65.871094 17.167969 C 67.132812 15.941406 71.097656 12.796875 72.839844 12.144531 C 70.742188 16.449219 70.441406 20.070312 69.179688 24.292969 C 69.023438 25.597656 68.703125 26.902344 68.507812 28.207031 C 68.152344 30.53125 67.898438 32.921875 67.6875 35.265625 C 67.542969 36.859375 67.78125 38.476562 67.621094 40.054688 C 67.460938 40.304688 63.898438 44.152344 63.480469 44.464844 C 63.550781 43.570312 63.507812 42.6875 63.488281 41.792969 C 63.40625 37.132812 63.8125 27.59375 65.414062 23.117188 C 62.597656 26.171875 58.960938 30.675781 57.125 34.429688 C 57.039062 34.601562 56.996094 34.804688 56.90625 34.964844 C 56.671875 34.019531 61.441406 27.585938 62.15625 26.679688 C 64.007812 24.335938 64.699219 24.847656 63.660156 21.898438 C 63.550781 21.585938 63.265625 20.027344 62.679688 20.433594 C 61.320312 21.375 57.285156 27.175781 56.90625 27.289062 C 58.535156 24.527344 63.585938 18.835938 65.871094 17.167969 Z M 65.871094 17.167969 "/>
<path style=" stroke:none;fill-rule:nonzero;fill:rgb(73.725492%,2.745098%,100%);fill-opacity:1;" d="M 75.585938 39.226562 C 77.894531 37.5 83.25 35.203125 85.871094 34.660156 C 85.484375 35.328125 84.867188 35.816406 84.328125 36.363281 C 82.289062 38.421875 80.449219 40.683594 78.804688 43.070312 C 78.746094 42.734375 79.050781 42.476562 78.921875 42.164062 C 78.679688 41.574219 77.378906 40.484375 76.886719 40.304688 C 76.386719 40.117188 76.402344 39.765625 76.066406 39.578125 C 75.765625 39.414062 75.164062 39.664062 75.652344 39.28125 Z M 75.585938 39.226562 "/>
</g>
</svg>
