<?xml version="1.0" encoding="UTF-8"?>
<svg xmlns="http://www.w3.org/2000/svg" xmlns:xlink="http://www.w3.org/1999/xlink" width="512px" height="512px" viewBox="0 0 512 512" version="1.1">
<defs>
<linearGradient id="linear0" gradientUnits="userSpaceOnUse" x1="422.040619" y1="313.095276" x2="243.697189" y2="345.857208" >
<stop offset="0" style="stop-color:rgb(77.647059%,0%,99.215686%);stop-opacity:1;"/>
<stop offset="1" style="stop-color:rgb(32.156863%,29.019608%,100%);stop-opacity:1;"/>
</linearGradient>
<linearGradient id="linear1" gradientUnits="userSpaceOnUse" x1="235.073273" y1="381.793823" x2="231.858292" y2="449.962524" >
<stop offset="0" style="stop-color:rgb(36.470588%,37.647059%,100%);stop-opacity:1;"/>
<stop offset="1" style="stop-color:rgb(18.431373%,69.411765%,100%);stop-opacity:1;"/>
</linearGradient>
</defs>
<g id="surface1">
<path style=" stroke:none;fill-rule:nonzero;fill:url(#linear0);" d="M 387.011719 200.835938 L 387.339844 201.121094 C 384.839844 203.074219 387.929688 201.808594 389.457031 202.648438 C 391.1875 203.597656 391.089844 205.394531 393.660156 206.351562 C 396.171875 207.285156 402.839844 212.851562 404.085938 215.878906 C 404.742188 217.46875 403.179688 218.792969 403.488281 220.515625 C 361.144531 280.316406 342.507812 345.472656 334.929688 417.90625 C 334.363281 423.289062 333.976562 440.5 332.316406 443.960938 C 329.570312 449.6875 322.554688 450.945312 317.679688 447.164062 C 312.707031 443.3125 313.796875 437.390625 314.007812 431.90625 C 316.355469 370.816406 333.625 292.160156 367.792969 239.601562 C 334.039062 265.644531 304.886719 310.730469 287.070312 348.578125 C 285.8125 351.253906 284.265625 355.523438 282.664062 357.832031 C 278.222656 368.554688 273.339844 379.25 270.054688 390.398438 C 269.398438 387.804688 271.925781 385.847656 271.523438 383.597656 L 271.164062 383.558594 C 265.425781 387.578125 250.835938 385.6875 249.65625 387.304688 L 249.136719 387.261719 C 250.285156 383.410156 251.835938 379.300781 253.59375 375.6875 C 253.867188 373.019531 255.621094 370.066406 256.601562 367.566406 C 282.914062 300.496094 324.226562 238.277344 387.011719 200.835938 Z M 387.011719 200.835938 "/>
<path style=" stroke:none;fill-rule:nonzero;fill:rgb(33.725491%,39.607844%,100%);fill-opacity:1;" d="M 253.59375 375.6875 C 253.84375 378.210938 251.425781 381.734375 250.90625 384.34375 C 251.335938 384.023438 267.773438 385.402344 272.019531 381.5 C 275.988281 377.851562 278.402344 361.125 282.664062 357.832031 C 278.222656 368.554688 273.339844 379.25 270.054688 390.398438 C 269.398438 387.804688 271.925781 385.847656 271.523438 383.597656 L 271.164062 383.558594 C 265.425781 387.578125 250.835938 385.6875 249.65625 387.304688 L 249.136719 387.261719 C 250.285156 383.410156 251.835938 379.300781 253.59375 375.6875 Z M 253.59375 375.6875 "/>
<path style=" stroke:none;fill-rule:nonzero;fill:rgb(44.705883%,18.039216%,99.607843%);fill-opacity:1;" d="M 174.339844 355.480469 C 173.011719 353.628906 170.40625 346.628906 169.214844 344.007812 C 148.859375 299.296875 121.414062 257.570312 88.964844 220.699219 C 84.597656 215.742188 75.039062 208.113281 73.488281 201.65625 C 71.59375 193.757812 80.097656 186.625 87.148438 191 C 91.4375 193.660156 96.863281 200.339844 100.386719 204.125 C 130.777344 236.773438 155.367188 273.496094 176.46875 312.640625 C 180.917969 320.894531 193.804688 345.414062 195.894531 354.207031 C 198.628906 358.714844 201.058594 366.445312 202.96875 371.558594 C 208.800781 387.136719 213.699219 402.355469 219.253906 417.894531 C 219.105469 412.605469 219.230469 407.308594 219.253906 402.019531 L 219.617188 402.089844 C 220.386719 400.628906 219.238281 398.535156 220.277344 396.964844 C 222.3125 393.886719 236.433594 398.125 240.46875 390.398438 C 240.628906 398.359375 240.429688 406.355469 240.46875 414.320312 C 243.671875 405.40625 245.402344 396.035156 249.136719 387.261719 L 249.65625 387.304688 C 250.835938 385.6875 265.425781 387.578125 271.164062 383.558594 L 271.523438 383.597656 C 271.925781 385.847656 269.398438 387.804688 270.054688 390.398438 C 265.324219 401.039062 261.265625 417.003906 258.125 428.300781 C 252.550781 448.359375 254.628906 449.796875 231.207031 449.867188 C 207.355469 449.945312 208.105469 451.9375 200.378906 427.203125 C 195.574219 411.824219 190.605469 396.105469 184.753906 381.097656 C 181.40625 372.519531 177.5625 364.085938 174.339844 355.480469 Z M 174.339844 355.480469 "/>
<path style=" stroke:none;fill-rule:nonzero;fill:url(#linear1);" d="M 195.894531 354.207031 C 198.628906 358.714844 201.058594 366.445312 202.96875 371.558594 C 208.800781 387.136719 213.699219 402.355469 219.253906 417.894531 C 219.105469 412.605469 219.230469 407.308594 219.253906 402.019531 L 219.617188 402.089844 C 220.386719 400.628906 219.238281 398.535156 220.277344 396.964844 C 222.3125 393.886719 236.433594 398.125 240.46875 390.398438 C 240.628906 398.359375 240.429688 406.355469 240.46875 414.320312 C 243.671875 405.40625 245.402344 396.035156 249.136719 387.261719 L 249.65625 387.304688 C 250.835938 385.6875 265.425781 387.578125 271.164062 383.558594 L 271.523438 383.597656 C 271.925781 385.847656 269.398438 387.804688 270.054688 390.398438 C 265.324219 401.039062 261.265625 417.003906 258.125 428.300781 C 252.550781 448.359375 254.628906 449.796875 231.207031 449.867188 C 207.355469 449.945312 208.105469 451.9375 200.378906 427.203125 C 195.574219 411.824219 190.605469 396.105469 184.753906 381.097656 C 181.40625 372.519531 177.5625 364.085938 174.339844 355.480469 C 177.984375 358.554688 194.269531 406.976562 196.917969 414.820312 C 198.535156 414.238281 200.359375 413.296875 202.027344 412.972656 C 205.371094 412.320312 213.527344 415.039062 215.988281 412.023438 C 217.417969 410.269531 201.882812 370.160156 200.050781 365.421875 C 198.683594 361.878906 196.230469 358.007812 195.894531 354.207031 Z M 195.894531 354.207031 "/>
<path style=" stroke:none;fill-rule:nonzero;fill:rgb(44.705883%,18.039216%,99.607843%);fill-opacity:1;" d="M 291.351562 139.722656 C 293.296875 139.144531 313.960938 109.449219 320.925781 104.617188 C 323.917969 102.542969 325.386719 110.527344 325.949219 112.125 C 331.253906 127.214844 327.714844 124.59375 318.242188 136.597656 C 314.578125 141.238281 290.167969 174.179688 291.351562 179.023438 C 286.378906 184.9375 282.984375 193.0625 279.769531 200.039062 C 260.171875 242.59375 249.269531 289.269531 243.921875 335.695312 C 243.410156 340.121094 243.386719 344.902344 242.511719 349.234375 C 242.1875 362.703125 240.898438 376.691406 240.46875 390.398438 C 236.433594 398.125 222.3125 393.886719 220.277344 396.964844 C 219.238281 398.535156 220.386719 400.628906 219.617188 402.089844 L 219.253906 402.019531 C 219.085938 389.304688 219.117188 369.003906 221.027344 356.367188 C 220.875 353.6875 221.382812 350.683594 221.621094 347.980469 C 227.226562 284.566406 243.269531 220.335938 275.175781 164.945312 C 279.410156 157.59375 285.976562 146.011719 291.351562 139.722656 Z M 291.351562 139.722656 "/>
<path style=" stroke:none;fill-rule:nonzero;fill:rgb(33.725491%,39.607844%,100%);fill-opacity:1;" d="M 242.511719 349.234375 C 242.1875 362.703125 240.898438 376.691406 240.46875 390.398438 C 236.433594 398.125 222.3125 393.886719 220.277344 396.964844 C 219.238281 398.535156 220.386719 400.628906 219.617188 402.089844 L 219.253906 402.019531 C 219.085938 389.304688 219.117188 369.003906 221.027344 356.367188 C 222.773438 360.859375 218.121094 386.796875 220.027344 393.976562 C 220.96875 394.0625 234.09375 392.304688 235.085938 391.988281 C 241.859375 389.820312 240.023438 387.441406 240.234375 381.3125 C 240.390625 376.808594 240.835938 351.179688 242.511719 349.234375 Z M 242.511719 349.234375 "/>
<path style=" stroke:none;fill-rule:nonzero;fill:rgb(73.725492%,2.745098%,100%);fill-opacity:1;" d="M 337.253906 87.894531 C 343.71875 81.625 364.019531 65.523438 372.9375 62.175781 C 362.210938 84.210938 360.667969 102.765625 354.191406 124.371094 C 353.390625 131.066406 351.769531 137.738281 350.753906 144.417969 C 348.941406 156.320312 347.644531 168.550781 346.554688 180.558594 C 345.8125 188.730469 347.046875 196.992188 346.226562 205.078125 C 345.394531 206.355469 327.15625 226.050781 325.03125 227.664062 C 325.378906 223.082031 325.148438 218.5625 325.066406 213.976562 C 324.628906 190.121094 326.722656 141.28125 334.921875 118.363281 C 320.492188 134.003906 301.882812 157.054688 292.476562 176.289062 C 292.046875 177.167969 291.828125 178.191406 291.351562 179.023438 C 290.167969 174.179688 314.578125 141.238281 318.242188 136.597656 C 327.714844 124.59375 331.253906 127.214844 325.949219 112.125 C 325.386719 110.527344 323.917969 102.542969 320.925781 104.617188 C 313.960938 109.449219 293.296875 139.144531 291.351562 139.722656 C 299.703125 125.574219 325.570312 96.433594 337.253906 87.894531 Z M 337.253906 87.894531 "/>
<path style=" stroke:none;fill-rule:nonzero;fill:rgb(73.725492%,2.745098%,100%);fill-opacity:1;" d="M 387.011719 200.835938 C 398.8125 192 426.242188 180.242188 439.660156 177.457031 C 437.675781 180.878906 434.511719 183.382812 431.753906 186.171875 C 421.320312 196.71875 411.894531 208.300781 403.488281 220.515625 C 403.179688 218.792969 404.742188 217.46875 404.085938 215.878906 C 402.839844 212.851562 396.171875 207.285156 393.660156 206.351562 C 391.089844 205.394531 391.1875 203.597656 389.457031 202.648438 C 387.929688 201.808594 384.839844 203.074219 387.339844 201.121094 Z M 387.011719 200.835938 "/>
</g>
</svg>
